<?xml version="1.0" standalone="no"?>
<!DOCTYPE svg PUBLIC "-//W3C//DTD SVG 20010904//EN"
 "http://www.w3.org/TR/2001/REC-SVG-20010904/DTD/svg10.dtd">
<svg version="1.0" xmlns="http://www.w3.org/2000/svg"
 width="260.000000pt" height="260.000000pt" viewBox="0 0 260.000000 260.000000"
 preserveAspectRatio="xMidYMid meet">
<metadata>
Created by potrace 1.11, written by Peter Selinger 2001-2013
</metadata>
<g transform="translate(0.000000,260.000000) scale(0.100000,-0.100000)"
fill="#000000" stroke="none">
<path d="M1260 2353 c-8 -3 -27 -17 -42 -30 l-27 -25 -27 21 c-19 15 -41 21
-80 21 -90 0 -140 -60 -164 -197 -14 -79 -24 -91 -34 -40 -15 81 -81 136 -149
123 -49 -9 -83 -39 -103 -91 -13 -34 -22 -45 -38 -45 -49 0 -96 -61 -96 -125
0 -42 18 -81 54 -114 38 -36 32 -44 -11 -15 -46 31 -94 27 -132 -11 -23 -23
-26 -34 -32 -152 -4 -76 -16 -167 -30 -223 -31 -131 -32 -327 -1 -453 91 -368
382 -654 747 -732 107 -23 303 -23 409 -1 360 78 647 353 743 712 36 138 38
345 4 479 -70 275 -245 499 -494 630 -82 43 -206 87 -283 99 -39 7 -42 10 -65
68 -13 34 -35 70 -49 80 -28 20 -77 30 -100 21z m-113 -272 c32 -17 74 -13
110 9 31 18 33 19 45 1 24 -32 66 -53 152 -71 267 -59 465 -211 577 -445 56
-116 80 -218 80 -346 1 -239 -84 -436 -259 -601 -88 -83 -180 -138 -302 -180
-91 -31 -101 -33 -250 -33 -149 0 -159 2 -250 33 -273 94 -470 306 -541 581
-28 107 -28 268 0 386 12 50 25 116 28 148 l6 58 41 -6 c79 -11 144 45 153
131 3 27 12 56 19 65 8 8 19 30 25 47 l11 32 31 -24 c47 -36 81 -41 133 -21
59 22 87 72 110 192 18 93 18 93 38 74 12 -10 31 -24 43 -30z"/>
</g>
</svg>
